<svg width="24" height="24" viewBox="0 0 24 24" fill="none" xmlns="http://www.w3.org/2000/svg">
<path fill-rule="evenodd" clip-rule="evenodd" d="M17.2 16.698V19.2C17.2 21.851 15.051 24 12.4 24C9.74903 24 7.6 21.851 7.6 19.2V16.698C7.6 16.4637 7.51699 16.208 7.32095 15.8714C7.195 15.6552 7.03021 15.4176 6.7816 15.0887L6.69797 14.9796C6.53198 14.7633 6.16941 14.2907 6.03556 14.1099C4.67973 12.2787 4 10.6438 4 8.4C4 3.76081 7.76081 0 12.4 0C17.0392 0 20.8 3.76081 20.8 8.4C20.8 10.6929 20.111 12.3898 18.7667 14.2176C18.6242 14.4113 18.2648 14.8784 18.0519 15.1551C17.9686 15.2633 17.9077 15.3425 17.8911 15.3646C17.6194 15.726 17.4507 15.9822 17.341 16.2047C17.2416 16.406 17.2 16.5616 17.2 16.698ZM14.8524 16.1272C14.9136 15.7953 15.0275 15.4696 15.1886 15.1429C15.378 14.7589 15.6189 14.3931 15.9726 13.9226C15.9969 13.8903 16.075 13.7887 16.176 13.6574L16.1762 13.6571C16.3923 13.3761 16.7128 12.9595 16.8333 12.7956C17.8996 11.3457 18.4 10.1135 18.4 8.4C18.4 5.08629 15.7137 2.4 12.4 2.4C9.08629 2.4 6.4 5.08629 6.4 8.4C6.4 10.0543 6.88799 11.2279 7.96444 12.6819C8.08001 12.838 8.40642 13.2635 8.58269 13.4933L8.58298 13.4937C8.64268 13.5716 8.6851 13.6269 8.69617 13.6415C8.99769 14.0404 9.211 14.3479 9.39481 14.6635C9.68106 15.1549 9.87111 15.634 9.95343 16.1307C10.7012 16.5796 11.5096 16.8 12.4 16.8C13.2927 16.8 14.103 16.5784 14.8524 16.1272ZM14.8 19.2V18.7949C14.041 19.0643 13.2392 19.2 12.4 19.2C11.5608 19.2 10.759 19.0643 10 18.7949V19.2C10 20.5255 11.0745 21.6 12.4 21.6C13.7255 21.6 14.8 20.5255 14.8 19.2Z" fill="white"/>
</svg>
