<svg width="21" height="23" viewBox="0 0 21 23" fill="none" xmlns="http://www.w3.org/2000/svg">
<path d="M18.375 9.75C18.375 15.875 10.5 21.125 10.5 21.125C10.5 21.125 2.625 15.875 2.625 9.75C2.625 7.66142 3.45469 5.65838 4.93153 4.18153C6.40838 2.70469 8.41142 1.875 10.5 1.875C12.5886 1.875 14.5916 2.70469 16.0685 4.18153C17.5453 5.65838 18.375 7.66142 18.375 9.75Z" stroke="black" stroke-width="2" stroke-linecap="round" stroke-linejoin="round"/>
<path d="M10.5 12.375C11.9497 12.375 13.125 11.1997 13.125 9.75C13.125 8.30025 11.9497 7.125 10.5 7.125C9.05025 7.125 7.875 8.30025 7.875 9.75C7.875 11.1997 9.05025 12.375 10.5 12.375Z" stroke="black" stroke-width="2" stroke-linecap="round" stroke-linejoin="round"/>
</svg>
