<svg width="413" height="316" viewBox="0 0 413 316" fill="none" xmlns="http://www.w3.org/2000/svg">
<rect x="20" y="20" width="373" height="86" rx="10" fill="#C4DE67"/>
<path d="M52.872 53.008H55.896V67.312H63.12V70H52.872V53.008ZM70.4578 53.008H73.0738L80.3938 70H76.9378L75.3538 66.112H67.9858L66.4498 70H63.0658L70.4578 53.008ZM74.2978 63.52L71.6818 56.608L69.0178 63.52H74.2978ZM95.283 63.76C95.283 64.784 95.107 65.712 94.755 66.544C94.403 67.36 93.923 68.056 93.315 68.632C92.707 69.208 91.987 69.656 91.155 69.976C90.323 70.28 89.419 70.432 88.443 70.432C87.467 70.432 86.563 70.28 85.731 69.976C84.899 69.656 84.171 69.208 83.547 68.632C82.939 68.056 82.459 67.36 82.107 66.544C81.771 65.712 81.603 64.784 81.603 63.76V53.008H84.627V63.64C84.627 64.136 84.691 64.632 84.819 65.128C84.947 65.608 85.155 66.04 85.443 66.424C85.747 66.808 86.139 67.12 86.619 67.36C87.115 67.6 87.723 67.72 88.443 67.72C89.163 67.72 89.763 67.6 90.243 67.36C90.739 67.12 91.131 66.808 91.419 66.424C91.723 66.04 91.939 65.608 92.067 65.128C92.195 64.632 92.259 64.136 92.259 63.64V53.008H95.283V63.76ZM98.8798 53.008H102.888L110.784 65.728H110.832V53.008H113.856V70H110.016L101.952 56.872H101.904V70H98.8798V53.008ZM129.87 56.992C129.422 56.384 128.838 55.944 128.118 55.672C127.398 55.384 126.694 55.24 126.006 55.24C125.126 55.24 124.326 55.4 123.606 55.72C122.886 56.04 122.262 56.48 121.734 57.04C121.222 57.6 120.822 58.256 120.534 59.008C120.262 59.76 120.126 60.576 120.126 61.456C120.126 62.384 120.262 63.232 120.534 64C120.806 64.768 121.19 65.432 121.686 65.992C122.198 66.536 122.806 66.96 123.51 67.264C124.214 67.568 125.006 67.72 125.886 67.72C126.798 67.72 127.606 67.544 128.31 67.192C129.014 66.824 129.582 66.344 130.014 65.752L132.438 67.456C131.686 68.4 130.766 69.136 129.678 69.664C128.59 70.176 127.318 70.432 125.862 70.432C124.534 70.432 123.31 70.216 122.19 69.784C121.086 69.336 120.134 68.72 119.334 67.936C118.534 67.136 117.91 66.192 117.462 65.104C117.014 64 116.79 62.784 116.79 61.456C116.79 60.096 117.022 58.872 117.486 57.784C117.966 56.68 118.614 55.744 119.43 54.976C120.262 54.208 121.238 53.616 122.358 53.2C123.478 52.784 124.694 52.576 126.006 52.576C126.55 52.576 127.118 52.632 127.71 52.744C128.302 52.84 128.87 53 129.414 53.224C129.958 53.432 130.47 53.696 130.95 54.016C131.43 54.336 131.838 54.72 132.174 55.168L129.87 56.992ZM134.317 53.008H137.341V59.872H145.285V53.008H148.309V70H145.285V62.464H137.341V70H134.317V53.008ZM151.868 68.32C151.868 67.808 152.052 67.368 152.42 67C152.804 66.632 153.26 66.448 153.788 66.448C154.3 66.448 154.748 66.624 155.132 66.976C155.516 67.328 155.708 67.76 155.708 68.272C155.708 68.784 155.516 69.224 155.132 69.592C154.764 69.96 154.316 70.144 153.788 70.144C153.532 70.144 153.284 70.096 153.044 70C152.82 69.904 152.62 69.776 152.444 69.616C152.268 69.456 152.124 69.264 152.012 69.04C151.916 68.816 151.868 68.576 151.868 68.32ZM151.868 60.208C151.868 59.696 152.052 59.256 152.42 58.888C152.804 58.52 153.26 58.336 153.788 58.336C154.3 58.336 154.748 58.512 155.132 58.864C155.516 59.216 155.708 59.648 155.708 60.16C155.708 60.672 155.516 61.112 155.132 61.48C154.764 61.848 154.316 62.032 153.788 62.032C153.532 62.032 153.284 61.984 153.044 61.888C152.82 61.792 152.62 61.664 152.444 61.504C152.268 61.344 152.124 61.152 152.012 60.928C151.916 60.704 151.868 60.464 151.868 60.208ZM170.161 53.008H172.777L180.097 70H176.641L175.057 66.112H167.689L166.153 70H162.769L170.161 53.008ZM174.001 63.52L171.385 56.608L168.721 63.52H174.001ZM193.346 70H190.61V68.272H190.562C190.162 68.944 189.602 69.456 188.882 69.808C188.178 70.16 187.418 70.336 186.602 70.336C185.722 70.336 184.93 70.176 184.226 69.856C183.538 69.52 182.946 69.08 182.45 68.536C181.97 67.976 181.594 67.328 181.322 66.592C181.066 65.84 180.938 65.04 180.938 64.192C180.938 63.344 181.074 62.552 181.346 61.816C181.618 61.08 182.002 60.44 182.498 59.896C182.994 59.352 183.586 58.928 184.274 58.624C184.962 58.304 185.714 58.144 186.53 58.144C187.058 58.144 187.53 58.208 187.946 58.336C188.362 58.448 188.722 58.592 189.026 58.768C189.346 58.944 189.618 59.136 189.842 59.344C190.066 59.552 190.25 59.752 190.394 59.944H190.466V51.856H193.346V70ZM183.866 64.192C183.866 64.64 183.93 65.088 184.058 65.536C184.202 65.984 184.41 66.384 184.682 66.736C184.954 67.088 185.298 67.376 185.714 67.6C186.13 67.824 186.618 67.936 187.178 67.936C187.706 67.936 188.178 67.832 188.594 67.624C189.01 67.4 189.362 67.112 189.65 66.76C189.954 66.408 190.178 66.016 190.322 65.584C190.482 65.136 190.562 64.688 190.562 64.24C190.562 63.792 190.482 63.344 190.322 62.896C190.178 62.448 189.954 62.048 189.65 61.696C189.362 61.344 189.01 61.056 188.594 60.832C188.178 60.608 187.706 60.496 187.178 60.496C186.618 60.496 186.13 60.608 185.714 60.832C185.298 61.04 184.954 61.32 184.682 61.672C184.41 62.024 184.202 62.424 184.058 62.872C183.93 63.304 183.866 63.744 183.866 64.192ZM196.173 64.192C196.173 63.28 196.333 62.456 196.653 61.72C196.989 60.968 197.437 60.328 197.997 59.8C198.557 59.272 199.221 58.864 199.989 58.576C200.757 58.288 201.573 58.144 202.437 58.144C203.301 58.144 204.117 58.288 204.885 58.576C205.653 58.864 206.317 59.272 206.877 59.8C207.437 60.328 207.877 60.968 208.197 61.72C208.533 62.456 208.701 63.28 208.701 64.192C208.701 65.104 208.533 65.936 208.197 66.688C207.877 67.44 207.437 68.088 206.877 68.632C206.317 69.16 205.653 69.576 204.885 69.88C204.117 70.184 203.301 70.336 202.437 70.336C201.573 70.336 200.757 70.184 199.989 69.88C199.221 69.576 198.557 69.16 197.997 68.632C197.437 68.088 196.989 67.44 196.653 66.688C196.333 65.936 196.173 65.104 196.173 64.192ZM199.101 64.192C199.101 64.64 199.165 65.088 199.293 65.536C199.437 65.984 199.645 66.384 199.917 66.736C200.189 67.088 200.533 67.376 200.949 67.6C201.365 67.824 201.861 67.936 202.437 67.936C203.013 67.936 203.509 67.824 203.925 67.6C204.341 67.376 204.685 67.088 204.957 66.736C205.229 66.384 205.429 65.984 205.557 65.536C205.701 65.088 205.773 64.64 205.773 64.192C205.773 63.744 205.701 63.304 205.557 62.872C205.429 62.424 205.229 62.024 204.957 61.672C204.685 61.32 204.341 61.04 203.925 60.832C203.509 60.608 203.013 60.496 202.437 60.496C201.861 60.496 201.365 60.608 200.949 60.832C200.533 61.04 200.189 61.32 199.917 61.672C199.645 62.024 199.437 62.424 199.293 62.872C199.165 63.304 199.101 63.744 199.101 64.192ZM214.254 58.48V60.088H214.326C214.47 59.864 214.654 59.64 214.878 59.416C215.118 59.176 215.406 58.968 215.742 58.792C216.078 58.6 216.454 58.448 216.87 58.336C217.302 58.208 217.782 58.144 218.31 58.144C219.126 58.144 219.878 58.304 220.566 58.624C221.254 58.928 221.846 59.352 222.342 59.896C222.838 60.44 223.222 61.08 223.494 61.816C223.766 62.552 223.902 63.344 223.902 64.192C223.902 65.04 223.766 65.84 223.494 66.592C223.238 67.328 222.862 67.976 222.366 68.536C221.886 69.08 221.294 69.52 220.59 69.856C219.902 70.176 219.118 70.336 218.238 70.336C217.422 70.336 216.67 70.168 215.982 69.832C215.31 69.496 214.79 69.04 214.422 68.464H214.374V75.76H211.494V58.48H214.254ZM220.974 64.192C220.974 63.744 220.902 63.304 220.758 62.872C220.63 62.424 220.43 62.024 220.158 61.672C219.886 61.32 219.542 61.04 219.126 60.832C218.71 60.608 218.222 60.496 217.662 60.496C217.134 60.496 216.662 60.608 216.246 60.832C215.83 61.056 215.47 61.344 215.166 61.696C214.878 62.048 214.654 62.448 214.494 62.896C214.35 63.344 214.278 63.792 214.278 64.24C214.278 64.688 214.35 65.136 214.494 65.584C214.654 66.016 214.878 66.408 215.166 66.76C215.47 67.112 215.83 67.4 216.246 67.624C216.662 67.832 217.134 67.936 217.662 67.936C218.222 67.936 218.71 67.824 219.126 67.6C219.542 67.376 219.886 67.088 220.158 66.736C220.43 66.384 220.63 65.984 220.758 65.536C220.902 65.088 220.974 64.64 220.974 64.192ZM225.025 60.784V58.48H227.041V55.144H229.873V58.48H232.753V60.784H229.873V66.136C229.873 66.648 229.961 67.072 230.137 67.408C230.329 67.744 230.745 67.912 231.385 67.912C231.577 67.912 231.785 67.896 232.009 67.864C232.233 67.816 232.433 67.752 232.609 67.672L232.705 69.928C232.449 70.024 232.145 70.096 231.793 70.144C231.441 70.208 231.105 70.24 230.785 70.24C230.017 70.24 229.393 70.136 228.913 69.928C228.433 69.704 228.049 69.408 227.761 69.04C227.489 68.656 227.297 68.224 227.185 67.744C227.089 67.248 227.041 66.72 227.041 66.16V60.784H225.025ZM247.989 68.536H247.917C247.629 69.048 247.165 69.472 246.525 69.808C245.885 70.128 245.157 70.288 244.341 70.288C243.877 70.288 243.389 70.224 242.877 70.096C242.381 69.984 241.917 69.792 241.485 69.52C241.069 69.232 240.717 68.864 240.429 68.416C240.157 67.952 240.021 67.384 240.021 66.712C240.021 65.848 240.261 65.16 240.741 64.648C241.237 64.136 241.869 63.744 242.637 63.472C243.405 63.2 244.253 63.024 245.181 62.944C246.125 62.848 247.045 62.8 247.941 62.8V62.512C247.941 61.792 247.677 61.264 247.149 60.928C246.637 60.576 246.021 60.4 245.301 60.4C244.693 60.4 244.109 60.528 243.549 60.784C242.989 61.04 242.525 61.352 242.157 61.72L240.669 59.968C241.325 59.36 242.077 58.904 242.925 58.6C243.789 58.296 244.661 58.144 245.541 58.144C246.565 58.144 247.405 58.288 248.061 58.576C248.733 58.864 249.261 59.24 249.645 59.704C250.029 60.168 250.293 60.688 250.437 61.264C250.597 61.84 250.677 62.416 250.677 62.992V70H247.989V68.536ZM247.941 64.744H247.293C246.829 64.744 246.341 64.768 245.829 64.816C245.317 64.848 244.845 64.936 244.413 65.08C243.981 65.208 243.621 65.4 243.333 65.656C243.045 65.896 242.901 66.232 242.901 66.664C242.901 66.936 242.957 67.168 243.069 67.36C243.197 67.536 243.357 67.68 243.549 67.792C243.741 67.904 243.957 67.984 244.197 68.032C244.437 68.08 244.677 68.104 244.917 68.104C245.909 68.104 246.661 67.84 247.173 67.312C247.685 66.784 247.941 66.064 247.941 65.152V64.744ZM268.841 56.56C268.521 56.144 268.065 55.8 267.473 55.528C266.897 55.24 266.313 55.096 265.721 55.096C265.369 55.096 265.017 55.144 264.665 55.24C264.313 55.32 263.993 55.456 263.705 55.648C263.417 55.824 263.177 56.064 262.985 56.368C262.809 56.656 262.721 57.008 262.721 57.424C262.721 57.808 262.801 58.136 262.961 58.408C263.121 58.68 263.337 58.912 263.609 59.104C263.897 59.296 264.241 59.464 264.641 59.608C265.041 59.752 265.481 59.896 265.961 60.04C266.505 60.216 267.065 60.416 267.641 60.64C268.233 60.864 268.769 61.16 269.249 61.528C269.745 61.896 270.145 62.36 270.449 62.92C270.769 63.48 270.929 64.176 270.929 65.008C270.929 65.92 270.761 66.72 270.425 67.408C270.089 68.08 269.641 68.64 269.081 69.088C268.521 69.536 267.865 69.872 267.113 70.096C266.361 70.32 265.569 70.432 264.737 70.432C263.633 70.432 262.553 70.232 261.497 69.832C260.441 69.416 259.577 68.808 258.905 68.008L261.065 65.992C261.481 66.568 262.033 67.024 262.721 67.36C263.425 67.696 264.113 67.864 264.785 67.864C265.137 67.864 265.497 67.824 265.865 67.744C266.233 67.648 266.561 67.496 266.849 67.288C267.153 67.08 267.393 66.824 267.569 66.52C267.761 66.2 267.857 65.808 267.857 65.344C267.857 64.896 267.753 64.528 267.545 64.24C267.337 63.936 267.057 63.68 266.705 63.472C266.353 63.248 265.937 63.056 265.457 62.896C264.977 62.736 264.473 62.568 263.945 62.392C263.433 62.232 262.921 62.04 262.409 61.816C261.897 61.592 261.433 61.296 261.017 60.928C260.617 60.56 260.289 60.112 260.033 59.584C259.777 59.04 259.649 58.368 259.649 57.568C259.649 56.704 259.825 55.96 260.177 55.336C260.545 54.712 261.017 54.2 261.593 53.8C262.185 53.384 262.849 53.08 263.585 52.888C264.337 52.68 265.097 52.576 265.865 52.576C266.729 52.576 267.601 52.728 268.481 53.032C269.377 53.336 270.153 53.792 270.809 54.4L268.841 56.56ZM276.574 58.48V60.088H276.646C276.79 59.864 276.974 59.64 277.198 59.416C277.438 59.176 277.726 58.968 278.062 58.792C278.398 58.6 278.774 58.448 279.19 58.336C279.622 58.208 280.102 58.144 280.63 58.144C281.446 58.144 282.198 58.304 282.886 58.624C283.574 58.928 284.166 59.352 284.662 59.896C285.158 60.44 285.542 61.08 285.814 61.816C286.086 62.552 286.222 63.344 286.222 64.192C286.222 65.04 286.086 65.84 285.814 66.592C285.558 67.328 285.182 67.976 284.686 68.536C284.206 69.08 283.614 69.52 282.91 69.856C282.222 70.176 281.438 70.336 280.558 70.336C279.742 70.336 278.99 70.168 278.302 69.832C277.63 69.496 277.11 69.04 276.742 68.464H276.694V75.76H273.814V58.48H276.574ZM283.294 64.192C283.294 63.744 283.222 63.304 283.078 62.872C282.95 62.424 282.75 62.024 282.478 61.672C282.206 61.32 281.862 61.04 281.446 60.832C281.03 60.608 280.542 60.496 279.982 60.496C279.454 60.496 278.982 60.608 278.566 60.832C278.15 61.056 277.79 61.344 277.486 61.696C277.198 62.048 276.974 62.448 276.814 62.896C276.67 63.344 276.598 63.792 276.598 64.24C276.598 64.688 276.67 65.136 276.814 65.584C276.974 66.016 277.198 66.408 277.486 66.76C277.79 67.112 278.15 67.4 278.566 67.624C278.982 67.832 279.454 67.936 279.982 67.936C280.542 67.936 281.03 67.824 281.446 67.6C281.862 67.376 282.206 67.088 282.478 66.736C282.75 66.384 282.95 65.984 283.078 65.536C283.222 65.088 283.294 64.64 283.294 64.192ZM288.329 64.192C288.329 63.28 288.489 62.456 288.809 61.72C289.145 60.968 289.593 60.328 290.153 59.8C290.713 59.272 291.377 58.864 292.145 58.576C292.913 58.288 293.729 58.144 294.593 58.144C295.457 58.144 296.273 58.288 297.041 58.576C297.809 58.864 298.473 59.272 299.033 59.8C299.593 60.328 300.033 60.968 300.353 61.72C300.689 62.456 300.857 63.28 300.857 64.192C300.857 65.104 300.689 65.936 300.353 66.688C300.033 67.44 299.593 68.088 299.033 68.632C298.473 69.16 297.809 69.576 297.041 69.88C296.273 70.184 295.457 70.336 294.593 70.336C293.729 70.336 292.913 70.184 292.145 69.88C291.377 69.576 290.713 69.16 290.153 68.632C289.593 68.088 289.145 67.44 288.809 66.688C288.489 65.936 288.329 65.104 288.329 64.192ZM291.257 64.192C291.257 64.64 291.321 65.088 291.449 65.536C291.593 65.984 291.801 66.384 292.073 66.736C292.345 67.088 292.689 67.376 293.105 67.6C293.521 67.824 294.017 67.936 294.593 67.936C295.169 67.936 295.665 67.824 296.081 67.6C296.497 67.376 296.841 67.088 297.113 66.736C297.385 66.384 297.585 65.984 297.713 65.536C297.857 65.088 297.929 64.64 297.929 64.192C297.929 63.744 297.857 63.304 297.713 62.872C297.585 62.424 297.385 62.024 297.113 61.672C296.841 61.32 296.497 61.04 296.081 60.832C295.665 60.608 295.169 60.496 294.593 60.496C294.017 60.496 293.521 60.608 293.105 60.832C292.689 61.04 292.345 61.32 292.073 61.672C291.801 62.024 291.593 62.424 291.449 62.872C291.321 63.304 291.257 63.744 291.257 64.192ZM301.994 60.784V58.48H304.01V55.144H306.842V58.48H309.722V60.784H306.842V66.136C306.842 66.648 306.93 67.072 307.106 67.408C307.298 67.744 307.714 67.912 308.354 67.912C308.546 67.912 308.754 67.896 308.978 67.864C309.202 67.816 309.402 67.752 309.578 67.672L309.674 69.928C309.418 70.024 309.114 70.096 308.762 70.144C308.41 70.208 308.074 70.24 307.754 70.24C306.986 70.24 306.362 70.136 305.882 69.928C305.402 69.704 305.018 69.408 304.73 69.04C304.458 68.656 304.266 68.224 304.154 67.744C304.058 67.248 304.01 66.72 304.01 66.16V60.784H301.994Z" fill="black"/>
<path d="M368 58L358 68" stroke="black" stroke-width="2" stroke-linecap="round" stroke-linejoin="round"/>
<path d="M368 68H358V58" stroke="black" stroke-width="2" stroke-linecap="round" stroke-linejoin="round"/>
<rect x="20" y="116" width="373" height="86" rx="10" fill="#5DB641"/>
<path d="M52.872 149.008H58.776C59.576 149.008 60.352 149.096 61.104 149.272C61.856 149.432 62.52 149.704 63.096 150.088C63.688 150.472 64.16 150.976 64.512 151.6C64.864 152.224 65.04 152.984 65.04 153.88C65.04 155.112 64.688 156.12 63.984 156.904C63.296 157.672 62.352 158.192 61.152 158.464L65.688 166H62.04L58.104 158.8H55.896V166H52.872V149.008ZM58.368 156.328C58.8 156.328 59.232 156.296 59.664 156.232C60.096 156.168 60.48 156.048 60.816 155.872C61.168 155.696 61.456 155.448 61.68 155.128C61.904 154.792 62.016 154.368 62.016 153.856C62.016 153.392 61.912 153.016 61.704 152.728C61.496 152.424 61.232 152.184 60.912 152.008C60.592 151.832 60.224 151.712 59.808 151.648C59.408 151.584 59.016 151.552 58.632 151.552H55.896V156.328H58.368ZM67.9658 149.008H70.9898V166H67.9658V149.008ZM83.4032 152.56C83.0832 152.144 82.6272 151.8 82.0352 151.528C81.4592 151.24 80.8752 151.096 80.2832 151.096C79.9312 151.096 79.5792 151.144 79.2272 151.24C78.8752 151.32 78.5552 151.456 78.2672 151.648C77.9792 151.824 77.7392 152.064 77.5472 152.368C77.3712 152.656 77.2832 153.008 77.2832 153.424C77.2832 153.808 77.3632 154.136 77.5232 154.408C77.6832 154.68 77.8992 154.912 78.1712 155.104C78.4592 155.296 78.8032 155.464 79.2032 155.608C79.6032 155.752 80.0432 155.896 80.5232 156.04C81.0672 156.216 81.6272 156.416 82.2032 156.64C82.7952 156.864 83.3312 157.16 83.8112 157.528C84.3072 157.896 84.7072 158.36 85.0112 158.92C85.3312 159.48 85.4912 160.176 85.4912 161.008C85.4912 161.92 85.3232 162.72 84.9872 163.408C84.6512 164.08 84.2032 164.64 83.6432 165.088C83.0832 165.536 82.4272 165.872 81.6752 166.096C80.9232 166.32 80.1312 166.432 79.2992 166.432C78.1952 166.432 77.1152 166.232 76.0592 165.832C75.0032 165.416 74.1392 164.808 73.4672 164.008L75.6272 161.992C76.0432 162.568 76.5952 163.024 77.2832 163.36C77.9872 163.696 78.6752 163.864 79.3472 163.864C79.6992 163.864 80.0592 163.824 80.4272 163.744C80.7952 163.648 81.1232 163.496 81.4112 163.288C81.7152 163.08 81.9552 162.824 82.1312 162.52C82.3232 162.2 82.4192 161.808 82.4192 161.344C82.4192 160.896 82.3152 160.528 82.1072 160.24C81.8992 159.936 81.6192 159.68 81.2672 159.472C80.9152 159.248 80.4992 159.056 80.0192 158.896C79.5392 158.736 79.0352 158.568 78.5072 158.392C77.9952 158.232 77.4832 158.04 76.9712 157.816C76.4592 157.592 75.9952 157.296 75.5792 156.928C75.1792 156.56 74.8512 156.112 74.5952 155.584C74.3392 155.04 74.2112 154.368 74.2112 153.568C74.2112 152.704 74.3872 151.96 74.7392 151.336C75.1072 150.712 75.5792 150.2 76.1552 149.8C76.7472 149.384 77.4112 149.08 78.1472 148.888C78.8992 148.68 79.6592 148.576 80.4272 148.576C81.2912 148.576 82.1632 148.728 83.0432 149.032C83.9392 149.336 84.7152 149.792 85.3712 150.4L83.4032 152.56ZM88.5204 149.008H99.7764V151.648H91.5444V155.968H99.3444V158.512H91.5444V163.312H100.208V166H88.5204V149.008ZM102.977 164.32C102.977 163.808 103.161 163.368 103.529 163C103.913 162.632 104.369 162.448 104.897 162.448C105.409 162.448 105.857 162.624 106.241 162.976C106.625 163.328 106.817 163.76 106.817 164.272C106.817 164.784 106.625 165.224 106.241 165.592C105.873 165.96 105.425 166.144 104.897 166.144C104.641 166.144 104.393 166.096 104.153 166C103.929 165.904 103.729 165.776 103.553 165.616C103.377 165.456 103.233 165.264 103.121 165.04C103.025 164.816 102.977 164.576 102.977 164.32ZM102.977 156.208C102.977 155.696 103.161 155.256 103.529 154.888C103.913 154.52 104.369 154.336 104.897 154.336C105.409 154.336 105.857 154.512 106.241 154.864C106.625 155.216 106.817 155.648 106.817 156.16C106.817 156.672 106.625 157.112 106.241 157.48C105.873 157.848 105.425 158.032 104.897 158.032C104.641 158.032 104.393 157.984 104.153 157.888C103.929 157.792 103.729 157.664 103.553 157.504C103.377 157.344 103.233 157.152 103.121 156.928C103.025 156.704 102.977 156.464 102.977 156.208ZM116.364 149.008H122.268C123.068 149.008 123.844 149.096 124.596 149.272C125.348 149.432 126.012 149.704 126.588 150.088C127.18 150.472 127.652 150.976 128.004 151.6C128.356 152.224 128.532 152.984 128.532 153.88C128.532 155.112 128.18 156.12 127.476 156.904C126.788 157.672 125.844 158.192 124.644 158.464L129.18 166H125.532L121.596 158.8H119.388V166H116.364V149.008ZM121.86 156.328C122.292 156.328 122.724 156.296 123.156 156.232C123.588 156.168 123.972 156.048 124.308 155.872C124.66 155.696 124.948 155.448 125.172 155.128C125.396 154.792 125.508 154.368 125.508 153.856C125.508 153.392 125.404 153.016 125.196 152.728C124.988 152.424 124.724 152.184 124.404 152.008C124.084 151.832 123.716 151.712 123.3 151.648C122.9 151.584 122.508 151.552 122.124 151.552H119.388V156.328H121.86ZM139.145 159.088C139.145 158.72 139.089 158.368 138.977 158.032C138.881 157.696 138.721 157.4 138.497 157.144C138.273 156.888 137.985 156.688 137.633 156.544C137.297 156.384 136.897 156.304 136.433 156.304C135.569 156.304 134.833 156.568 134.225 157.096C133.633 157.608 133.305 158.272 133.241 159.088H139.145ZM142.025 160.384C142.025 160.512 142.025 160.64 142.025 160.768C142.025 160.896 142.017 161.024 142.001 161.152H133.241C133.273 161.568 133.377 161.952 133.553 162.304C133.745 162.64 133.993 162.936 134.297 163.192C134.601 163.432 134.945 163.624 135.329 163.768C135.713 163.912 136.113 163.984 136.529 163.984C137.249 163.984 137.857 163.856 138.353 163.6C138.849 163.328 139.257 162.96 139.577 162.496L141.497 164.032C140.361 165.568 138.713 166.336 136.553 166.336C135.657 166.336 134.833 166.2 134.081 165.928C133.329 165.64 132.673 165.24 132.113 164.728C131.569 164.216 131.137 163.592 130.817 162.856C130.513 162.104 130.361 161.256 130.361 160.312C130.361 159.384 130.513 158.544 130.817 157.792C131.137 157.024 131.569 156.376 132.113 155.848C132.657 155.304 133.297 154.888 134.033 154.6C134.785 154.296 135.593 154.144 136.457 154.144C137.257 154.144 137.993 154.28 138.665 154.552C139.353 154.808 139.945 155.2 140.441 155.728C140.937 156.24 141.321 156.888 141.593 157.672C141.881 158.44 142.025 159.344 142.025 160.384ZM156.526 166H153.79V164.272H153.742C153.342 164.944 152.782 165.456 152.062 165.808C151.358 166.16 150.598 166.336 149.782 166.336C148.902 166.336 148.11 166.176 147.406 165.856C146.718 165.52 146.126 165.08 145.63 164.536C145.15 163.976 144.774 163.328 144.502 162.592C144.246 161.84 144.118 161.04 144.118 160.192C144.118 159.344 144.254 158.552 144.526 157.816C144.798 157.08 145.182 156.44 145.678 155.896C146.174 155.352 146.766 154.928 147.454 154.624C148.142 154.304 148.894 154.144 149.71 154.144C150.238 154.144 150.71 154.208 151.126 154.336C151.542 154.448 151.902 154.592 152.206 154.768C152.526 154.944 152.798 155.136 153.022 155.344C153.246 155.552 153.43 155.752 153.574 155.944H153.646V147.856H156.526V166ZM147.046 160.192C147.046 160.64 147.11 161.088 147.238 161.536C147.382 161.984 147.59 162.384 147.862 162.736C148.134 163.088 148.478 163.376 148.894 163.6C149.31 163.824 149.798 163.936 150.358 163.936C150.886 163.936 151.358 163.832 151.774 163.624C152.19 163.4 152.542 163.112 152.83 162.76C153.134 162.408 153.358 162.016 153.502 161.584C153.662 161.136 153.742 160.688 153.742 160.24C153.742 159.792 153.662 159.344 153.502 158.896C153.358 158.448 153.134 158.048 152.83 157.696C152.542 157.344 152.19 157.056 151.774 156.832C151.358 156.608 150.886 156.496 150.358 156.496C149.798 156.496 149.31 156.608 148.894 156.832C148.478 157.04 148.134 157.32 147.862 157.672C147.59 158.024 147.382 158.424 147.238 158.872C147.11 159.304 147.046 159.744 147.046 160.192ZM170.537 166H167.801V164.152H167.753C167.497 164.728 167.049 165.24 166.409 165.688C165.785 166.12 165.041 166.336 164.177 166.336C163.425 166.336 162.777 166.208 162.233 165.952C161.705 165.68 161.265 165.328 160.913 164.896C160.577 164.464 160.329 163.968 160.169 163.408C160.009 162.848 159.929 162.272 159.929 161.68V154.48H162.809V160.864C162.809 161.2 162.833 161.552 162.881 161.92C162.929 162.288 163.033 162.624 163.193 162.928C163.353 163.216 163.569 163.456 163.841 163.648C164.129 163.84 164.505 163.936 164.969 163.936C165.417 163.936 165.809 163.848 166.145 163.672C166.497 163.48 166.777 163.24 166.985 162.952C167.209 162.664 167.377 162.336 167.489 161.968C167.601 161.584 167.657 161.2 167.657 160.816V154.48H170.537V166ZM181.866 157.672C181.642 157.352 181.306 157.088 180.858 156.88C180.41 156.656 179.954 156.544 179.49 156.544C178.962 156.544 178.498 156.656 178.098 156.88C177.698 157.088 177.362 157.368 177.09 157.72C176.834 158.072 176.642 158.472 176.514 158.92C176.386 159.352 176.322 159.792 176.322 160.24C176.322 160.688 176.386 161.136 176.514 161.584C176.658 162.016 176.866 162.408 177.138 162.76C177.41 163.112 177.746 163.4 178.146 163.624C178.562 163.832 179.042 163.936 179.586 163.936C180.034 163.936 180.482 163.848 180.93 163.672C181.378 163.496 181.738 163.24 182.01 162.904L183.81 164.728C183.33 165.24 182.714 165.64 181.962 165.928C181.226 166.2 180.426 166.336 179.562 166.336C178.714 166.336 177.906 166.2 177.138 165.928C176.386 165.656 175.722 165.256 175.146 164.728C174.586 164.2 174.138 163.56 173.802 162.808C173.482 162.056 173.322 161.2 173.322 160.24C173.322 159.312 173.482 158.472 173.802 157.72C174.138 156.968 174.586 156.328 175.146 155.8C175.706 155.272 176.354 154.864 177.09 154.576C177.842 154.288 178.642 154.144 179.49 154.144C180.338 154.144 181.154 154.304 181.938 154.624C182.738 154.944 183.37 155.384 183.834 155.944L181.866 157.672ZM185.76 154.48H188.64V166H185.76V154.48ZM185.352 150.568C185.352 150.104 185.52 149.704 185.856 149.368C186.208 149.016 186.648 148.84 187.176 148.84C187.704 148.84 188.144 149.008 188.496 149.344C188.864 149.664 189.048 150.072 189.048 150.568C189.048 151.064 188.864 151.48 188.496 151.816C188.144 152.136 187.704 152.296 187.176 152.296C186.648 152.296 186.208 152.128 185.856 151.792C185.52 151.44 185.352 151.032 185.352 150.568ZM192.134 154.48H194.87V156.328H194.918C195.174 155.752 195.614 155.248 196.238 154.816C196.878 154.368 197.63 154.144 198.494 154.144C199.246 154.144 199.886 154.28 200.414 154.552C200.958 154.808 201.398 155.152 201.734 155.584C202.086 156.016 202.342 156.512 202.502 157.072C202.662 157.632 202.742 158.208 202.742 158.8V166H199.862V159.616C199.862 159.28 199.838 158.928 199.79 158.56C199.742 158.192 199.638 157.864 199.478 157.576C199.318 157.272 199.094 157.024 198.806 156.832C198.534 156.64 198.166 156.544 197.702 156.544C197.238 156.544 196.838 156.64 196.502 156.832C196.166 157.008 195.886 157.24 195.662 157.528C195.454 157.816 195.294 158.152 195.182 158.536C195.07 158.904 195.014 159.28 195.014 159.664V166H192.134V154.48ZM217.815 154.48V164.968C217.815 166.008 217.687 166.944 217.431 167.776C217.175 168.624 216.775 169.336 216.231 169.912C215.703 170.504 215.031 170.96 214.215 171.28C213.399 171.6 212.431 171.76 211.311 171.76C210.847 171.76 210.351 171.72 209.823 171.64C209.311 171.56 208.799 171.44 208.287 171.28C207.791 171.12 207.311 170.92 206.847 170.68C206.383 170.44 205.967 170.168 205.599 169.864L207.255 167.632C207.815 168.16 208.447 168.56 209.151 168.832C209.855 169.12 210.567 169.264 211.287 169.264C211.975 169.264 212.551 169.16 213.015 168.952C213.495 168.76 213.871 168.488 214.143 168.136C214.431 167.784 214.631 167.368 214.743 166.888C214.871 166.408 214.935 165.88 214.935 165.304V164.464H214.887C214.471 165.024 213.935 165.456 213.279 165.76C212.639 166.048 211.919 166.192 211.119 166.192C210.255 166.192 209.471 166.032 208.767 165.712C208.063 165.392 207.463 164.96 206.967 164.416C206.487 163.872 206.111 163.24 205.839 162.52C205.567 161.784 205.431 161.008 205.431 160.192C205.431 159.36 205.559 158.576 205.815 157.84C206.087 157.104 206.463 156.464 206.943 155.92C207.439 155.376 208.031 154.944 208.719 154.624C209.423 154.304 210.207 154.144 211.071 154.144C211.887 154.144 212.647 154.312 213.351 154.648C214.055 154.984 214.615 155.504 215.031 156.208H215.079V154.48H217.815ZM211.671 156.496C211.143 156.496 210.671 156.592 210.255 156.784C209.855 156.976 209.511 157.24 209.223 157.576C208.951 157.896 208.735 158.28 208.575 158.728C208.431 159.176 208.359 159.656 208.359 160.168C208.359 160.632 208.431 161.08 208.575 161.512C208.735 161.944 208.951 162.336 209.223 162.688C209.511 163.024 209.855 163.296 210.255 163.504C210.671 163.712 211.135 163.816 211.647 163.816C212.175 163.816 212.647 163.72 213.063 163.528C213.495 163.32 213.855 163.048 214.143 162.712C214.447 162.376 214.679 161.992 214.839 161.56C214.999 161.112 215.079 160.648 215.079 160.168C215.079 159.672 214.999 159.2 214.839 158.752C214.679 158.304 214.447 157.912 214.143 157.576C213.855 157.24 213.503 156.976 213.087 156.784C212.671 156.592 212.199 156.496 211.671 156.496ZM225.402 149.008H228.714L232.002 161.488H232.05L235.794 149.008H238.914L242.586 161.488H242.634L245.994 149.008H249.21L244.242 166H241.314L237.33 153.256H237.282L233.298 166H230.37L225.402 149.008ZM257.364 164.536H257.292C257.004 165.048 256.54 165.472 255.9 165.808C255.26 166.128 254.532 166.288 253.716 166.288C253.252 166.288 252.764 166.224 252.252 166.096C251.756 165.984 251.292 165.792 250.86 165.52C250.444 165.232 250.092 164.864 249.804 164.416C249.532 163.952 249.396 163.384 249.396 162.712C249.396 161.848 249.636 161.16 250.116 160.648C250.612 160.136 251.244 159.744 252.012 159.472C252.78 159.2 253.628 159.024 254.556 158.944C255.5 158.848 256.42 158.8 257.316 158.8V158.512C257.316 157.792 257.052 157.264 256.524 156.928C256.012 156.576 255.396 156.4 254.676 156.4C254.068 156.4 253.484 156.528 252.924 156.784C252.364 157.04 251.9 157.352 251.532 157.72L250.044 155.968C250.7 155.36 251.452 154.904 252.3 154.6C253.164 154.296 254.036 154.144 254.916 154.144C255.94 154.144 256.78 154.288 257.436 154.576C258.108 154.864 258.636 155.24 259.02 155.704C259.404 156.168 259.668 156.688 259.812 157.264C259.972 157.84 260.052 158.416 260.052 158.992V166H257.364V164.536ZM257.316 160.744H256.668C256.204 160.744 255.716 160.768 255.204 160.816C254.692 160.848 254.22 160.936 253.788 161.08C253.356 161.208 252.996 161.4 252.708 161.656C252.42 161.896 252.276 162.232 252.276 162.664C252.276 162.936 252.332 163.168 252.444 163.36C252.572 163.536 252.732 163.68 252.924 163.792C253.116 163.904 253.332 163.984 253.572 164.032C253.812 164.08 254.052 164.104 254.292 164.104C255.284 164.104 256.036 163.84 256.548 163.312C257.06 162.784 257.316 162.064 257.316 161.152V160.744ZM269.72 157.552C269.464 157.216 269.112 156.928 268.664 156.688C268.216 156.432 267.728 156.304 267.2 156.304C266.736 156.304 266.312 156.4 265.928 156.592C265.544 156.784 265.352 157.104 265.352 157.552C265.352 158 265.56 158.32 265.976 158.512C266.408 158.688 267.032 158.872 267.848 159.064C268.28 159.16 268.712 159.288 269.144 159.448C269.592 159.608 269.992 159.824 270.344 160.096C270.712 160.352 271.008 160.68 271.232 161.08C271.456 161.464 271.568 161.936 271.568 162.496C271.568 163.2 271.432 163.8 271.16 164.296C270.904 164.776 270.552 165.168 270.104 165.472C269.672 165.776 269.16 165.992 268.568 166.12C267.992 166.264 267.392 166.336 266.768 166.336C265.872 166.336 265 166.176 264.152 165.856C263.304 165.52 262.6 165.048 262.04 164.44L263.936 162.664C264.256 163.08 264.672 163.424 265.184 163.696C265.696 163.968 266.264 164.104 266.888 164.104C267.096 164.104 267.304 164.08 267.512 164.032C267.736 163.984 267.936 163.912 268.112 163.816C268.304 163.704 268.456 163.56 268.568 163.384C268.68 163.208 268.736 162.992 268.736 162.736C268.736 162.256 268.512 161.912 268.064 161.704C267.632 161.496 266.976 161.288 266.096 161.08C265.664 160.984 265.24 160.864 264.824 160.72C264.424 160.56 264.064 160.36 263.744 160.12C263.424 159.864 263.168 159.552 262.976 159.184C262.784 158.816 262.688 158.36 262.688 157.816C262.688 157.176 262.816 156.624 263.072 156.16C263.344 155.696 263.696 155.32 264.128 155.032C264.56 154.728 265.048 154.504 265.592 154.36C266.136 154.216 266.696 154.144 267.272 154.144C268.104 154.144 268.912 154.288 269.696 154.576C270.496 154.864 271.128 155.304 271.592 155.896L269.72 157.552ZM272.416 156.784V154.48H274.432V151.144H277.264V154.48H280.144V156.784H277.264V162.136C277.264 162.648 277.352 163.072 277.528 163.408C277.72 163.744 278.136 163.912 278.776 163.912C278.968 163.912 279.176 163.896 279.4 163.864C279.624 163.816 279.824 163.752 280 163.672L280.096 165.928C279.84 166.024 279.536 166.096 279.184 166.144C278.832 166.208 278.496 166.24 278.176 166.24C277.408 166.24 276.784 166.136 276.304 165.928C275.824 165.704 275.44 165.408 275.152 165.04C274.88 164.656 274.688 164.224 274.576 163.744C274.48 163.248 274.432 162.72 274.432 162.16V156.784H272.416ZM290.34 159.088C290.34 158.72 290.284 158.368 290.172 158.032C290.076 157.696 289.916 157.4 289.692 157.144C289.468 156.888 289.18 156.688 288.828 156.544C288.492 156.384 288.092 156.304 287.628 156.304C286.764 156.304 286.028 156.568 285.42 157.096C284.828 157.608 284.5 158.272 284.436 159.088H290.34ZM293.22 160.384C293.22 160.512 293.22 160.64 293.22 160.768C293.22 160.896 293.212 161.024 293.196 161.152H284.436C284.468 161.568 284.572 161.952 284.748 162.304C284.94 162.64 285.188 162.936 285.492 163.192C285.796 163.432 286.14 163.624 286.524 163.768C286.908 163.912 287.308 163.984 287.724 163.984C288.444 163.984 289.052 163.856 289.548 163.6C290.044 163.328 290.452 162.96 290.772 162.496L292.692 164.032C291.556 165.568 289.908 166.336 287.748 166.336C286.852 166.336 286.028 166.2 285.276 165.928C284.524 165.64 283.868 165.24 283.308 164.728C282.764 164.216 282.332 163.592 282.012 162.856C281.708 162.104 281.556 161.256 281.556 160.312C281.556 159.384 281.708 158.544 282.012 157.792C282.332 157.024 282.764 156.376 283.308 155.848C283.852 155.304 284.492 154.888 285.228 154.6C285.98 154.296 286.788 154.144 287.652 154.144C288.452 154.144 289.188 154.28 289.86 154.552C290.548 154.808 291.14 155.2 291.636 155.728C292.132 156.24 292.516 156.888 292.788 157.672C293.076 158.44 293.22 159.344 293.22 160.384Z" fill="black"/>
<path d="M368 154L358 164" stroke="black" stroke-width="2" stroke-linecap="round" stroke-linejoin="round"/>
<path d="M368 164H358V154" stroke="black" stroke-width="2" stroke-linecap="round" stroke-linejoin="round"/>
<rect x="20" y="212" width="373" height="86" rx="10" fill="#5DB641"/>
<path d="M52.872 245.008H58.776C59.576 245.008 60.352 245.096 61.104 245.272C61.856 245.432 62.52 245.704 63.096 246.088C63.688 246.472 64.16 246.976 64.512 247.6C64.864 248.224 65.04 248.984 65.04 249.88C65.04 251.112 64.688 252.12 63.984 252.904C63.296 253.672 62.352 254.192 61.152 254.464L65.688 262H62.04L58.104 254.8H55.896V262H52.872V245.008ZM58.368 252.328C58.8 252.328 59.232 252.296 59.664 252.232C60.096 252.168 60.48 252.048 60.816 251.872C61.168 251.696 61.456 251.448 61.68 251.128C61.904 250.792 62.016 250.368 62.016 249.856C62.016 249.392 61.912 249.016 61.704 248.728C61.496 248.424 61.232 248.184 60.912 248.008C60.592 247.832 60.224 247.712 59.808 247.648C59.408 247.584 59.016 247.552 58.632 247.552H55.896V252.328H58.368ZM67.9658 245.008H70.9898V262H67.9658V245.008ZM83.4032 248.56C83.0832 248.144 82.6272 247.8 82.0352 247.528C81.4592 247.24 80.8752 247.096 80.2832 247.096C79.9312 247.096 79.5792 247.144 79.2272 247.24C78.8752 247.32 78.5552 247.456 78.2672 247.648C77.9792 247.824 77.7392 248.064 77.5472 248.368C77.3712 248.656 77.2832 249.008 77.2832 249.424C77.2832 249.808 77.3632 250.136 77.5232 250.408C77.6832 250.68 77.8992 250.912 78.1712 251.104C78.4592 251.296 78.8032 251.464 79.2032 251.608C79.6032 251.752 80.0432 251.896 80.5232 252.04C81.0672 252.216 81.6272 252.416 82.2032 252.64C82.7952 252.864 83.3312 253.16 83.8112 253.528C84.3072 253.896 84.7072 254.36 85.0112 254.92C85.3312 255.48 85.4912 256.176 85.4912 257.008C85.4912 257.92 85.3232 258.72 84.9872 259.408C84.6512 260.08 84.2032 260.64 83.6432 261.088C83.0832 261.536 82.4272 261.872 81.6752 262.096C80.9232 262.32 80.1312 262.432 79.2992 262.432C78.1952 262.432 77.1152 262.232 76.0592 261.832C75.0032 261.416 74.1392 260.808 73.4672 260.008L75.6272 257.992C76.0432 258.568 76.5952 259.024 77.2832 259.36C77.9872 259.696 78.6752 259.864 79.3472 259.864C79.6992 259.864 80.0592 259.824 80.4272 259.744C80.7952 259.648 81.1232 259.496 81.4112 259.288C81.7152 259.08 81.9552 258.824 82.1312 258.52C82.3232 258.2 82.4192 257.808 82.4192 257.344C82.4192 256.896 82.3152 256.528 82.1072 256.24C81.8992 255.936 81.6192 255.68 81.2672 255.472C80.9152 255.248 80.4992 255.056 80.0192 254.896C79.5392 254.736 79.0352 254.568 78.5072 254.392C77.9952 254.232 77.4832 254.04 76.9712 253.816C76.4592 253.592 75.9952 253.296 75.5792 252.928C75.1792 252.56 74.8512 252.112 74.5952 251.584C74.3392 251.04 74.2112 250.368 74.2112 249.568C74.2112 248.704 74.3872 247.96 74.7392 247.336C75.1072 246.712 75.5792 246.2 76.1552 245.8C76.7472 245.384 77.4112 245.08 78.1472 244.888C78.8992 244.68 79.6592 244.576 80.4272 244.576C81.2912 244.576 82.1632 244.728 83.0432 245.032C83.9392 245.336 84.7152 245.792 85.3712 246.4L83.4032 248.56ZM88.5204 245.008H99.7764V247.648H91.5444V251.968H99.3444V254.512H91.5444V259.312H100.208V262H88.5204V245.008ZM102.977 260.32C102.977 259.808 103.161 259.368 103.529 259C103.913 258.632 104.369 258.448 104.897 258.448C105.409 258.448 105.857 258.624 106.241 258.976C106.625 259.328 106.817 259.76 106.817 260.272C106.817 260.784 106.625 261.224 106.241 261.592C105.873 261.96 105.425 262.144 104.897 262.144C104.641 262.144 104.393 262.096 104.153 262C103.929 261.904 103.729 261.776 103.553 261.616C103.377 261.456 103.233 261.264 103.121 261.04C103.025 260.816 102.977 260.576 102.977 260.32ZM102.977 252.208C102.977 251.696 103.161 251.256 103.529 250.888C103.913 250.52 104.369 250.336 104.897 250.336C105.409 250.336 105.857 250.512 106.241 250.864C106.625 251.216 106.817 251.648 106.817 252.16C106.817 252.672 106.625 253.112 106.241 253.48C105.873 253.848 105.425 254.032 104.897 254.032C104.641 254.032 104.393 253.984 104.153 253.888C103.929 253.792 103.729 253.664 103.553 253.504C103.377 253.344 103.233 253.152 103.121 252.928C103.025 252.704 102.977 252.464 102.977 252.208ZM115.548 253.456C115.548 252.096 115.772 250.872 116.22 249.784C116.684 248.68 117.316 247.744 118.116 246.976C118.932 246.208 119.892 245.616 120.996 245.2C122.116 244.784 123.332 244.576 124.644 244.576C125.972 244.576 127.196 244.784 128.316 245.2C129.436 245.616 130.404 246.208 131.22 246.976C132.036 247.744 132.668 248.68 133.116 249.784C133.58 250.872 133.812 252.096 133.812 253.456C133.812 254.784 133.58 256 133.116 257.104C132.668 258.192 132.036 259.136 131.22 259.936C130.404 260.72 129.436 261.336 128.316 261.784C127.196 262.216 125.972 262.432 124.644 262.432C123.332 262.432 122.116 262.216 120.996 261.784C119.892 261.336 118.932 260.72 118.116 259.936C117.316 259.136 116.684 258.192 116.22 257.104C115.772 256 115.548 254.784 115.548 253.456ZM118.836 253.456C118.836 254.368 118.972 255.208 119.244 255.976C119.532 256.728 119.932 257.384 120.444 257.944C120.972 258.504 121.588 258.944 122.292 259.264C123.012 259.568 123.804 259.72 124.668 259.72C125.532 259.72 126.324 259.568 127.044 259.264C127.764 258.944 128.38 258.504 128.892 257.944C129.42 257.384 129.82 256.728 130.092 255.976C130.38 255.208 130.524 254.368 130.524 253.456C130.524 252.576 130.38 251.76 130.092 251.008C129.82 250.256 129.428 249.6 128.916 249.04C128.404 248.48 127.788 248.04 127.068 247.72C126.348 247.4 125.548 247.24 124.668 247.24C123.788 247.24 122.988 247.4 122.268 247.72C121.564 248.04 120.956 248.48 120.444 249.04C119.932 249.6 119.532 250.256 119.244 251.008C118.972 251.76 118.836 252.576 118.836 253.456ZM144.459 253.672C144.235 253.352 143.899 253.088 143.451 252.88C143.003 252.656 142.547 252.544 142.083 252.544C141.555 252.544 141.091 252.656 140.691 252.88C140.291 253.088 139.955 253.368 139.683 253.72C139.427 254.072 139.235 254.472 139.107 254.92C138.979 255.352 138.915 255.792 138.915 256.24C138.915 256.688 138.979 257.136 139.107 257.584C139.251 258.016 139.459 258.408 139.731 258.76C140.003 259.112 140.339 259.4 140.739 259.624C141.155 259.832 141.635 259.936 142.179 259.936C142.627 259.936 143.075 259.848 143.523 259.672C143.971 259.496 144.331 259.24 144.603 258.904L146.403 260.728C145.923 261.24 145.307 261.64 144.555 261.928C143.819 262.2 143.019 262.336 142.155 262.336C141.307 262.336 140.499 262.2 139.731 261.928C138.979 261.656 138.315 261.256 137.739 260.728C137.179 260.2 136.731 259.56 136.395 258.808C136.075 258.056 135.915 257.2 135.915 256.24C135.915 255.312 136.075 254.472 136.395 253.72C136.731 252.968 137.179 252.328 137.739 251.8C138.299 251.272 138.947 250.864 139.683 250.576C140.435 250.288 141.235 250.144 142.083 250.144C142.931 250.144 143.747 250.304 144.531 250.624C145.331 250.944 145.963 251.384 146.427 251.944L144.459 253.672ZM156.418 255.088C156.418 254.72 156.362 254.368 156.25 254.032C156.154 253.696 155.994 253.4 155.77 253.144C155.546 252.888 155.258 252.688 154.906 252.544C154.57 252.384 154.17 252.304 153.706 252.304C152.842 252.304 152.106 252.568 151.498 253.096C150.906 253.608 150.578 254.272 150.514 255.088H156.418ZM159.298 256.384C159.298 256.512 159.298 256.64 159.298 256.768C159.298 256.896 159.29 257.024 159.274 257.152H150.514C150.546 257.568 150.65 257.952 150.826 258.304C151.018 258.64 151.266 258.936 151.57 259.192C151.874 259.432 152.218 259.624 152.602 259.768C152.986 259.912 153.386 259.984 153.802 259.984C154.522 259.984 155.13 259.856 155.626 259.6C156.122 259.328 156.53 258.96 156.85 258.496L158.77 260.032C157.634 261.568 155.986 262.336 153.826 262.336C152.93 262.336 152.106 262.2 151.354 261.928C150.602 261.64 149.946 261.24 149.386 260.728C148.842 260.216 148.41 259.592 148.09 258.856C147.786 258.104 147.634 257.256 147.634 256.312C147.634 255.384 147.786 254.544 148.09 253.792C148.41 253.024 148.842 252.376 149.386 251.848C149.93 251.304 150.57 250.888 151.306 250.6C152.058 250.296 152.866 250.144 153.73 250.144C154.53 250.144 155.266 250.28 155.938 250.552C156.626 250.808 157.218 251.2 157.714 251.728C158.21 252.24 158.594 252.888 158.866 253.672C159.154 254.44 159.298 255.344 159.298 256.384ZM169.099 260.536H169.027C168.739 261.048 168.275 261.472 167.635 261.808C166.995 262.128 166.267 262.288 165.451 262.288C164.987 262.288 164.499 262.224 163.987 262.096C163.491 261.984 163.027 261.792 162.595 261.52C162.179 261.232 161.827 260.864 161.539 260.416C161.267 259.952 161.131 259.384 161.131 258.712C161.131 257.848 161.371 257.16 161.851 256.648C162.347 256.136 162.979 255.744 163.747 255.472C164.515 255.2 165.363 255.024 166.291 254.944C167.235 254.848 168.155 254.8 169.051 254.8V254.512C169.051 253.792 168.787 253.264 168.259 252.928C167.747 252.576 167.131 252.4 166.411 252.4C165.803 252.4 165.219 252.528 164.659 252.784C164.099 253.04 163.635 253.352 163.267 253.72L161.779 251.968C162.435 251.36 163.187 250.904 164.035 250.6C164.899 250.296 165.771 250.144 166.651 250.144C167.675 250.144 168.515 250.288 169.171 250.576C169.843 250.864 170.371 251.24 170.755 251.704C171.139 252.168 171.403 252.688 171.547 253.264C171.707 253.84 171.787 254.416 171.787 254.992V262H169.099V260.536ZM169.051 256.744H168.403C167.939 256.744 167.451 256.768 166.939 256.816C166.427 256.848 165.955 256.936 165.523 257.08C165.091 257.208 164.731 257.4 164.443 257.656C164.155 257.896 164.011 258.232 164.011 258.664C164.011 258.936 164.067 259.168 164.179 259.36C164.307 259.536 164.467 259.68 164.659 259.792C164.851 259.904 165.067 259.984 165.307 260.032C165.547 260.08 165.787 260.104 166.027 260.104C167.019 260.104 167.771 259.84 168.283 259.312C168.795 258.784 169.051 258.064 169.051 257.152V256.744ZM175.142 250.48H177.878V252.328H177.926C178.182 251.752 178.622 251.248 179.246 250.816C179.886 250.368 180.638 250.144 181.502 250.144C182.254 250.144 182.894 250.28 183.422 250.552C183.966 250.808 184.406 251.152 184.742 251.584C185.094 252.016 185.35 252.512 185.51 253.072C185.67 253.632 185.75 254.208 185.75 254.8V262H182.87V255.616C182.87 255.28 182.846 254.928 182.798 254.56C182.75 254.192 182.646 253.864 182.486 253.576C182.326 253.272 182.102 253.024 181.814 252.832C181.542 252.64 181.174 252.544 180.71 252.544C180.246 252.544 179.846 252.64 179.51 252.832C179.174 253.008 178.894 253.24 178.67 253.528C178.462 253.816 178.302 254.152 178.19 254.536C178.078 254.904 178.022 255.28 178.022 255.664V262H175.142V250.48ZM195.255 245.008H198.279V259.312H205.503V262H195.255V245.008ZM207.417 250.48H210.297V262H207.417V250.48ZM207.009 246.568C207.009 246.104 207.177 245.704 207.513 245.368C207.865 245.016 208.305 244.84 208.833 244.84C209.361 244.84 209.801 245.008 210.153 245.344C210.521 245.664 210.705 246.072 210.705 246.568C210.705 247.064 210.521 247.48 210.153 247.816C209.801 248.136 209.361 248.296 208.833 248.296C208.305 248.296 207.865 248.128 207.513 247.792C207.177 247.44 207.009 247.032 207.009 246.568ZM214.247 252.784H212.062V250.48H214.247V248.776C214.247 248.088 214.319 247.432 214.463 246.808C214.623 246.168 214.879 245.608 215.23 245.128C215.599 244.648 216.079 244.272 216.671 244C217.263 243.712 218.007 243.568 218.903 243.568C219.223 243.568 219.487 243.584 219.695 243.616C219.919 243.632 220.143 243.672 220.367 243.736L220.175 246.184C220.015 246.136 219.839 246.096 219.647 246.064C219.471 246.032 219.279 246.016 219.071 246.016C218.655 246.016 218.319 246.096 218.062 246.256C217.807 246.416 217.607 246.624 217.463 246.88C217.335 247.136 217.247 247.416 217.199 247.72C217.151 248.024 217.127 248.32 217.127 248.608V250.48H219.791V252.784H217.127V262H214.247V252.784ZM229.684 255.088C229.684 254.72 229.628 254.368 229.516 254.032C229.42 253.696 229.26 253.4 229.036 253.144C228.812 252.888 228.524 252.688 228.172 252.544C227.836 252.384 227.436 252.304 226.972 252.304C226.108 252.304 225.372 252.568 224.764 253.096C224.172 253.608 223.844 254.272 223.78 255.088H229.684ZM232.564 256.384C232.564 256.512 232.564 256.64 232.564 256.768C232.564 256.896 232.556 257.024 232.54 257.152H223.78C223.812 257.568 223.916 257.952 224.092 258.304C224.284 258.64 224.532 258.936 224.836 259.192C225.14 259.432 225.484 259.624 225.868 259.768C226.252 259.912 226.652 259.984 227.068 259.984C227.788 259.984 228.396 259.856 228.892 259.6C229.388 259.328 229.796 258.96 230.116 258.496L232.036 260.032C230.9 261.568 229.252 262.336 227.092 262.336C226.196 262.336 225.372 262.2 224.62 261.928C223.868 261.64 223.212 261.24 222.652 260.728C222.108 260.216 221.676 259.592 221.356 258.856C221.052 258.104 220.9 257.256 220.9 256.312C220.9 255.384 221.052 254.544 221.356 253.792C221.676 253.024 222.108 252.376 222.652 251.848C223.196 251.304 223.836 250.888 224.572 250.6C225.324 250.296 226.132 250.144 226.996 250.144C227.796 250.144 228.532 250.28 229.204 250.552C229.892 250.808 230.484 251.2 230.98 251.728C231.476 252.24 231.86 252.888 232.132 253.672C232.42 254.44 232.564 255.344 232.564 256.384Z" fill="black"/>
<path d="M368 250L358 260" stroke="black" stroke-width="2" stroke-linecap="round" stroke-linejoin="round"/>
<path d="M368 260H358V250" stroke="black" stroke-width="2" stroke-linecap="round" stroke-linejoin="round"/>
</svg>
